# Blender v2.91.2 OBJ File: 'Wall Tiles.blend'
# www.blender.org
o Wall.001_Straight_Plane.002
v -1.010000 -0.000000 0.750000
v 1.010000 -0.000000 0.750000
v 1.010000 0.000000 -1.000000
v -1.010000 0.000000 -1.000000
v -1.010000 4.000000 -1.000000
v 1.010000 4.000000 -1.000000
v -1.010000 4.000000 0.450000
v -1.010000 3.700000 0.750000
v 1.010000 3.700000 0.750000
v 1.010000 4.000000 0.450000
vt 0.000000 0.000000
vt 1.000000 0.000000
vt 1.000000 1.000000
vt 0.000000 1.000000
vt 1.000000 0.000000
vt 0.000000 0.000000
vt 0.000000 0.000000
vt 1.000000 0.000000
vt 1.000000 0.000000
vt 0.000000 0.000000
vn 0.0000 1.0000 0.0000
vn 0.0000 -1.0000 0.0000
vn -0.0000 -0.7071 -0.7071
vn 0.0000 0.0000 -1.0000
s 1
f 1/1/1 2/2/1 3/3/1 4/4/1
f 10/5/2 7/6/2 5/7/2 6/8/2
f 7/6/3 10/5/3 9/9/3 8/10/3
f 2/2/4 1/1/4 8/10/4 9/9/4
