# Blender v2.91.2 OBJ File: ''
# www.blender.org
o Inner_Corner.001_Outer_Corner_Plane.003
v 1.010000 -0.000000 0.750000
v 1.010000 0.000000 -1.010000
v -0.750000 0.000000 -1.010000
v 1.010000 4.000000 0.750000
v -0.750000 4.000000 -1.010000
v 1.010000 4.000000 -1.010000
v -0.750000 -0.000000 0.500000
v -0.500000 -0.000000 0.750000
v -0.500000 4.000000 0.750000
v -0.750000 4.000000 0.500000
vt 1.000000 0.000000
vt 0.142857 0.000000
vt 0.000000 0.000000
vt 0.000000 0.000000
vt 1.000000 0.000000
vt 0.000000 1.000000
vt 0.000000 0.142857
vt 0.142857 0.000000
vt 1.000000 0.000000
vt 1.000000 1.000000
vn 0.0000 -1.0000 -0.0000
vn 1.0000 -0.0000 0.0000
vn 0.0000 1.0000 0.0000
vn 0.7071 0.0000 -0.7071
vn 0.0000 0.0000 -1.0000
s 1
f 4/1/1 9/2/1 10/3/1 5/4/1 6/5/1
f 3/6/2 5/4/2 10/3/2 7/7/2
f 7/7/3 8/8/3 1/9/3 2/10/3 3/6/3
f 7/7/4 10/3/4 9/2/4 8/8/4
f 1/9/5 8/8/5 9/2/5 4/1/5
