# Blender v2.91.2 OBJ File: 'Wall Tiles.blend'
# www.blender.org
o Plane.001_Plane.002
v 1.000000 0.000000 -0.250000
v -1.000000 0.000000 -0.250000
v 1.000000 4.000000 -0.250000
v -1.000000 4.000000 -0.250000
v 1.000000 0.000000 0.250000
v -1.000000 0.000000 0.250000
v 1.000000 4.000000 0.250000
v -1.000000 4.000000 0.250000
v 1.200000 -0.200000 -0.250000
v -1.200000 -0.200000 -0.250000
v 1.200000 4.200000 -0.250000
v -1.200000 4.200000 -0.250000
v 1.200000 -0.200000 0.250000
v -1.200000 -0.200000 0.250000
v 1.200000 4.200000 0.250000
v -1.200000 4.200000 0.250000
vt 0.000000 0.000000
vt 0.000000 0.000000
vt 0.000000 0.000000
vt 0.000000 0.000000
vt 0.000000 0.000000
vt 0.000000 0.000000
vt 0.000000 0.000000
vt 0.000000 0.000000
vt 0.000000 0.000000
vt 0.000000 0.000000
vt 0.000000 0.000000
vt 0.000000 0.000000
vt 0.000000 0.000000
vt 0.000000 0.000000
vt 0.000000 0.000000
vt 0.000000 0.000000
vn 1.0000 0.0000 0.0000
vn -1.0000 0.0000 0.0000
vn 0.0000 -1.0000 0.0000
vn 0.0000 1.0000 0.0000
vn 0.0000 0.0000 -1.0000
s off
f 4/1/1 8/2/1 6/3/1 2/4/1
f 1/5/2 5/6/2 7/7/2 3/8/2
f 3/8/3 7/7/3 8/2/3 4/1/3
f 2/4/4 6/3/4 5/6/4 1/5/4
f 4/1/5 2/4/5 10/9/5 12/10/5
f 1/5/5 3/8/5 11/11/5 9/12/5
f 3/8/5 4/1/5 12/10/5 11/11/5
f 2/4/5 1/5/5 9/12/5 10/9/5
f 11/11/4 12/10/4 16/13/4 15/14/4
f 10/9/3 9/12/3 13/15/3 14/16/3
f 12/10/2 10/9/2 14/16/2 16/13/2
f 9/12/1 11/11/1 15/14/1 13/15/1
