# Blender v2.91.2 OBJ File: ''
# www.blender.org
o Door.001_Door_Plane.001
v 0.746666 -0.000000 0.750000
v 1.010000 -0.000000 0.750000
v 1.010000 0.000000 -1.000000
v 0.746666 0.000000 -1.000000
v -0.746666 2.200000 0.750000
v -1.010000 2.200000 0.750000
v -1.010000 4.000000 0.750000
v -0.746666 4.000000 0.750000
v -1.010000 4.000000 -1.000000
v -0.746666 4.000000 -1.000000
v 1.010000 4.000000 0.750000
v 0.746666 4.000000 0.750000
v 0.746666 4.000000 -1.000000
v 1.010000 4.000000 -1.000000
v 1.010000 2.200000 0.750000
v 0.746666 2.200000 0.750000
v -1.010000 -0.000000 0.750000
v -0.746666 -0.000000 0.750000
v -0.746666 0.000000 -1.000000
v -1.010000 0.000000 -1.000000
v -0.746666 2.200000 1.010000
v -0.746666 -0.000000 1.010000
v 0.746666 2.200000 1.010000
v 0.746666 -0.000000 1.010000
vt 0.833333 0.000000
vt 1.000000 0.000000
vt 1.000000 1.000000
vt 0.833333 1.000000
vt 0.166667 0.000000
vt 0.000000 0.000000
vt 0.000000 0.000000
vt 0.166667 0.000000
vt 0.000000 0.000000
vt 0.166667 0.000000
vt 1.000000 0.000000
vt 0.833333 0.000000
vt 0.833333 0.000000
vt 1.000000 0.000000
vt 1.000000 0.000000
vt 0.833333 0.000000
vt 0.000000 0.000000
vt 0.166667 0.000000
vt 0.166667 1.000000
vt 0.000000 1.000000
vt 0.166667 0.000000
vt 0.166667 0.000000
vt 0.833333 0.000000
vt 0.833333 0.000000
vn 0.0000 1.0000 0.0000
vn -0.0000 0.0000 -1.0000
vn 0.0000 -1.0000 -0.0000
vn 1.0000 0.0000 0.0000
vn -1.0000 0.0000 0.0000
s 1
f 1/1/1 2/2/1 3/3/1 4/4/1
f 5/5/2 6/6/2 7/7/2 8/8/2
f 8/8/3 7/7/3 9/9/3 10/10/3
f 11/11/3 12/12/3 13/13/3 14/14/3
f 12/12/3 8/8/3 10/10/3 13/13/3
f 15/15/2 16/16/2 12/12/2 11/11/2
f 16/16/2 5/5/2 8/8/2 12/12/2
f 17/17/1 18/18/1 19/19/1 20/20/1
f 18/18/1 1/1/1 4/4/1 19/19/1
f 2/2/2 1/1/2 16/16/2 15/15/2
f 18/18/2 17/17/2 6/6/2 5/5/2
f 18/18/4 5/5/4 21/21/4 22/22/4
f 5/5/3 16/16/3 23/23/3 21/21/3
f 16/16/5 1/1/5 24/24/5 23/23/5
f 1/1/1 18/18/1 22/22/1 24/24/1
