# Blender v2.91.2 OBJ File: 'Wall Tiles.blend'
# www.blender.org
o Outer_Corner.001_Middle_Plane.003
v 1.000000 0.000000 -1.000000
v -1.000000 0.000000 -1.000000
v 1.000000 -0.000000 1.000000
v 1.000000 4.000000 1.000000
v -1.000000 4.000000 -1.000000
v 1.000000 4.000000 -1.000000
v -0.750000 4.000000 -1.000000
v 1.000000 4.000000 0.750000
v -0.450000 4.000000 0.450000
v -0.750000 0.000000 -1.000000
v -0.750000 -0.000000 1.000000
v -1.000000 0.000000 0.750000
v 1.000000 0.000000 0.750000
v -0.750000 -0.000000 0.750000
v -0.750000 3.700000 1.000000
v -0.600260 4.000000 0.725477
v -0.450000 4.000000 1.000000
v -0.725476 4.000000 0.600260
v -1.000000 3.700000 0.750000
v -1.000000 4.000000 0.450000
vt 0.125000 0.000000
vt 0.500000 0.000000
vt 0.000000 0.000000
vt 0.000000 0.000000
vt 0.000000 0.000000
vt 0.000000 0.000000
vt 0.000000 0.000000
vt 0.000000 0.000000
vt 0.000000 0.000000
vt 0.249567 0.000000
vt 0.249567 0.000000
vt 0.000000 0.000000
vt 0.125000 0.000000
vt 0.000000 0.000000
vt 1.000000 0.000000
vt 0.500000 0.000000
vt 0.125000 0.000000
vt 1.000000 0.000000
vt 1.000000 0.000000
vt 0.275000 0.000000
vt 0.312175 0.000000
vt 1.000000 0.000000
vt 1.000000 0.000000
vt 1.000000 0.000000
vt 0.000000 0.000000
vn 0.0000 1.0000 0.0000
vn 0.6594 -0.6594 -0.3609
vn 0.3609 -0.6594 -0.6594
vn 0.5000 -0.7071 -0.5000
vn 0.7071 0.0000 -0.7071
vn 0.0000 -1.0000 -0.0000
s off
f 11/1/1 14/2/1 12/3/1
f 15/4/2 16/5/2 17/6/2
f 18/7/3 19/8/3 20/9/3
f 15/4/4 19/8/4 18/10/4 16/11/4
f 12/3/5 19/8/5 15/4/5 11/12/5
s 1
f 14/2/1 10/13/1 2/14/1 12/3/1
f 8/15/6 9/16/6 7/17/6 6/18/6
f 9/16/6 16/11/6 18/10/6
f 4/19/6 17/20/6 16/21/6 9/16/6 8/15/6
f 13/22/1 1/23/1 10/13/1 14/2/1
f 3/24/1 13/22/1 14/2/1 11/1/1
f 9/16/6 18/10/6 20/9/6 5/25/6 7/17/6
