# Blender v2.91.2 OBJ File: ''
# www.blender.org
o Wall.001_Straight_Plane.002
v -0.750000 -0.000000 -1.010000
v -0.750000 -0.000000 1.010000
v 1.000000 0.000000 1.010000
v 1.000000 0.000000 -1.010000
v -0.750000 4.000000 -1.010000
v -0.750000 4.000000 1.010000
v 1.000000 4.000000 -1.010000
v 1.000000 4.000000 1.010000
vt 0.000000 0.000000
vt 1.000000 0.000000
vt 1.000000 1.000000
vt 0.000000 1.000000
vt 0.000000 0.000000
vt 1.000000 0.000000
vt 0.000000 0.000000
vt 1.000000 0.000000
vn -0.0000 1.0000 0.0000
vn 1.0000 0.0000 -0.0000
vn 0.0000 -1.0000 0.0000
s 1
f 1/1/1 2/2/1 3/3/1 4/4/1
f 2/2/2 1/1/2 5/5/2 6/6/2
f 6/6/3 5/5/3 7/7/3 8/8/3
